<mxfile host="app.diagrams.net" modified="2024-01-15T10:46:52.125Z" agent="Mozilla/5.0 (Windows NT 10.0; Win64; x64) AppleWebKit/537.36 (KHTML, like Gecko) Chrome/120.0.0.0 Safari/537.36" etag="ACi07QhYWg_b2CbTZL4V" version="22.1.18" type="device">
  <diagram name="Page-1" id="1JpiNA8KXCaj-mkLswMQ">
    <mxGraphModel dx="2074" dy="1132" grid="1" gridSize="10" guides="1" tooltips="1" connect="1" arrows="1" fold="1" page="1" pageScale="1" pageWidth="1169" pageHeight="827" math="0" shadow="0">
      <root>
        <mxCell id="0" />
        <mxCell id="1" parent="0" />
        <mxCell id="axAE53MjwZ55xwB7vDH6-1" value="Vinyl" style="ellipse;whiteSpace=wrap;html=1;fillColor=#b1ddf0;strokeColor=#10739e;" parent="1" vertex="1">
          <mxGeometry x="330" y="30" width="110" height="70" as="geometry" />
        </mxCell>
        <mxCell id="axAE53MjwZ55xwB7vDH6-3" value="mo:Vinyl" style="ellipse;whiteSpace=wrap;html=1;fillColor=#ffe6cc;strokeColor=#d79b00;" parent="1" vertex="1">
          <mxGeometry x="10" y="150" width="100" height="70" as="geometry" />
        </mxCell>
        <mxCell id="axAE53MjwZ55xwB7vDH6-4" value="URL of Vinyl" style="ellipse;whiteSpace=wrap;html=1;fillColor=#ffe6cc;strokeColor=#d79b00;" parent="1" vertex="1">
          <mxGeometry x="130" y="150" width="100" height="70" as="geometry" />
        </mxCell>
        <mxCell id="axAE53MjwZ55xwB7vDH6-5" value="Artist" style="ellipse;whiteSpace=wrap;html=1;fillColor=#ffe6cc;strokeColor=#d79b00;" parent="1" vertex="1">
          <mxGeometry x="250" y="150" width="100" height="70" as="geometry" />
        </mxCell>
        <mxCell id="axAE53MjwZ55xwB7vDH6-6" value="Release Date" style="ellipse;whiteSpace=wrap;html=1;fillColor=#ffe6cc;strokeColor=#d79b00;" parent="1" vertex="1">
          <mxGeometry x="380" y="150" width="100" height="70" as="geometry" />
        </mxCell>
        <mxCell id="axAE53MjwZ55xwB7vDH6-10" value="" style="endArrow=classic;html=1;rounded=0;exitX=0;exitY=0.5;exitDx=0;exitDy=0;entryX=0.5;entryY=0;entryDx=0;entryDy=0;" parent="1" source="axAE53MjwZ55xwB7vDH6-1" target="axAE53MjwZ55xwB7vDH6-3" edge="1">
          <mxGeometry width="50" height="50" relative="1" as="geometry">
            <mxPoint x="380" y="480" as="sourcePoint" />
            <mxPoint x="430" y="430" as="targetPoint" />
          </mxGeometry>
        </mxCell>
        <mxCell id="axAE53MjwZ55xwB7vDH6-11" value="&lt;font style=&quot;font-size: 14px;&quot;&gt;@type&lt;/font&gt;" style="edgeLabel;html=1;align=center;verticalAlign=middle;resizable=0;points=[];" parent="axAE53MjwZ55xwB7vDH6-10" vertex="1" connectable="0">
          <mxGeometry x="-0.156" y="1" relative="1" as="geometry">
            <mxPoint as="offset" />
          </mxGeometry>
        </mxCell>
        <mxCell id="axAE53MjwZ55xwB7vDH6-12" value="" style="endArrow=classic;html=1;rounded=0;exitX=0;exitY=1;exitDx=0;exitDy=0;entryX=0.5;entryY=0;entryDx=0;entryDy=0;" parent="1" source="axAE53MjwZ55xwB7vDH6-1" target="axAE53MjwZ55xwB7vDH6-4" edge="1">
          <mxGeometry width="50" height="50" relative="1" as="geometry">
            <mxPoint x="380" y="480" as="sourcePoint" />
            <mxPoint x="430" y="430" as="targetPoint" />
          </mxGeometry>
        </mxCell>
        <mxCell id="axAE53MjwZ55xwB7vDH6-13" value="&lt;span style=&quot;font-size: 14px;&quot;&gt;@id&lt;/span&gt;" style="edgeLabel;html=1;align=center;verticalAlign=middle;resizable=0;points=[];" parent="axAE53MjwZ55xwB7vDH6-12" vertex="1" connectable="0">
          <mxGeometry x="-0.1626" y="1" relative="1" as="geometry">
            <mxPoint as="offset" />
          </mxGeometry>
        </mxCell>
        <mxCell id="axAE53MjwZ55xwB7vDH6-14" value="&lt;font style=&quot;font-size: 14px;&quot;&gt;foaf:maker&lt;/font&gt;" style="endArrow=classic;html=1;rounded=0;" parent="1" source="axAE53MjwZ55xwB7vDH6-1" target="axAE53MjwZ55xwB7vDH6-5" edge="1">
          <mxGeometry width="50" height="50" relative="1" as="geometry">
            <mxPoint x="380" y="480" as="sourcePoint" />
            <mxPoint x="430" y="430" as="targetPoint" />
          </mxGeometry>
        </mxCell>
        <mxCell id="axAE53MjwZ55xwB7vDH6-15" value="&lt;font style=&quot;font-size: 14px;&quot;&gt;dc:date&lt;/font&gt;" style="endArrow=classic;html=1;rounded=0;entryX=0.336;entryY=0;entryDx=0;entryDy=0;entryPerimeter=0;" parent="1" source="axAE53MjwZ55xwB7vDH6-1" target="axAE53MjwZ55xwB7vDH6-6" edge="1">
          <mxGeometry width="50" height="50" relative="1" as="geometry">
            <mxPoint x="438" y="50" as="sourcePoint" />
            <mxPoint x="430" y="430" as="targetPoint" />
          </mxGeometry>
        </mxCell>
        <mxCell id="axAE53MjwZ55xwB7vDH6-22" value="Text of Vinyl" style="ellipse;whiteSpace=wrap;html=1;fillColor=#ffe6cc;strokeColor=#d79b00;" parent="1" vertex="1">
          <mxGeometry x="500" y="150" width="100" height="70" as="geometry" />
        </mxCell>
        <mxCell id="axAE53MjwZ55xwB7vDH6-23" value="URL of Image" style="ellipse;whiteSpace=wrap;html=1;fillColor=#ffe6cc;strokeColor=#d79b00;" parent="1" vertex="1">
          <mxGeometry x="620" y="150" width="100" height="70" as="geometry" />
        </mxCell>
        <mxCell id="axAE53MjwZ55xwB7vDH6-24" value="Genre" style="ellipse;whiteSpace=wrap;html=1;fillColor=#ffe6cc;strokeColor=#d79b00;" parent="1" vertex="1">
          <mxGeometry x="730" y="150" width="100" height="70" as="geometry" />
        </mxCell>
        <mxCell id="axAE53MjwZ55xwB7vDH6-25" value="" style="endArrow=classic;html=1;rounded=0;exitX=1;exitY=0.5;exitDx=0;exitDy=0;" parent="1" source="axAE53MjwZ55xwB7vDH6-1" target="axAE53MjwZ55xwB7vDH6-22" edge="1">
          <mxGeometry width="50" height="50" relative="1" as="geometry">
            <mxPoint x="400" y="480" as="sourcePoint" />
            <mxPoint x="450" y="430" as="targetPoint" />
          </mxGeometry>
        </mxCell>
        <mxCell id="axAE53MjwZ55xwB7vDH6-26" value="&lt;font style=&quot;font-size: 14px;&quot;&gt;dc:title&lt;/font&gt;" style="edgeLabel;html=1;align=center;verticalAlign=middle;resizable=0;points=[];" parent="axAE53MjwZ55xwB7vDH6-25" vertex="1" connectable="0">
          <mxGeometry x="0.0473" y="2" relative="1" as="geometry">
            <mxPoint as="offset" />
          </mxGeometry>
        </mxCell>
        <mxCell id="axAE53MjwZ55xwB7vDH6-27" value="" style="endArrow=classic;html=1;rounded=0;exitX=1;exitY=0.414;exitDx=0;exitDy=0;exitPerimeter=0;" parent="1" source="axAE53MjwZ55xwB7vDH6-1" target="axAE53MjwZ55xwB7vDH6-23" edge="1">
          <mxGeometry width="50" height="50" relative="1" as="geometry">
            <mxPoint x="400" y="480" as="sourcePoint" />
            <mxPoint x="450" y="430" as="targetPoint" />
          </mxGeometry>
        </mxCell>
        <mxCell id="axAE53MjwZ55xwB7vDH6-28" value="&lt;font style=&quot;font-size: 14px;&quot;&gt;mo:image&lt;/font&gt;" style="edgeLabel;html=1;align=center;verticalAlign=middle;resizable=0;points=[];" parent="axAE53MjwZ55xwB7vDH6-27" vertex="1" connectable="0">
          <mxGeometry x="0.1493" y="-1" relative="1" as="geometry">
            <mxPoint as="offset" />
          </mxGeometry>
        </mxCell>
        <mxCell id="axAE53MjwZ55xwB7vDH6-29" value="" style="endArrow=classic;html=1;rounded=0;entryX=0.5;entryY=0;entryDx=0;entryDy=0;exitX=0.964;exitY=0.3;exitDx=0;exitDy=0;exitPerimeter=0;" parent="1" source="axAE53MjwZ55xwB7vDH6-1" target="axAE53MjwZ55xwB7vDH6-24" edge="1">
          <mxGeometry width="50" height="50" relative="1" as="geometry">
            <mxPoint x="420" y="40" as="sourcePoint" />
            <mxPoint x="450" y="430" as="targetPoint" />
          </mxGeometry>
        </mxCell>
        <mxCell id="axAE53MjwZ55xwB7vDH6-30" value="&lt;font style=&quot;font-size: 14px;&quot;&gt;mo:genre&lt;/font&gt;" style="edgeLabel;html=1;align=center;verticalAlign=middle;resizable=0;points=[];" parent="axAE53MjwZ55xwB7vDH6-29" vertex="1" connectable="0">
          <mxGeometry x="-0.1723" y="-2" relative="1" as="geometry">
            <mxPoint as="offset" />
          </mxGeometry>
        </mxCell>
        <mxCell id="axAE53MjwZ55xwB7vDH6-32" value="" style="endArrow=classic;html=1;rounded=0;entryX=0.5;entryY=0;entryDx=0;entryDy=0;" parent="1" source="axAE53MjwZ55xwB7vDH6-6" edge="1" target="axAE53MjwZ55xwB7vDH6-33">
          <mxGeometry width="50" height="50" relative="1" as="geometry">
            <mxPoint x="400" y="470" as="sourcePoint" />
            <mxPoint x="430" y="300" as="targetPoint" />
          </mxGeometry>
        </mxCell>
        <mxCell id="axAE53MjwZ55xwB7vDH6-34" value="&lt;font style=&quot;font-size: 14px;&quot;&gt;@type&lt;/font&gt;" style="edgeLabel;html=1;align=center;verticalAlign=middle;resizable=0;points=[];" parent="axAE53MjwZ55xwB7vDH6-32" vertex="1" connectable="0">
          <mxGeometry x="0.075" y="2" relative="1" as="geometry">
            <mxPoint as="offset" />
          </mxGeometry>
        </mxCell>
        <mxCell id="axAE53MjwZ55xwB7vDH6-33" value="xsd:date" style="ellipse;whiteSpace=wrap;html=1;fillColor=#d5e8d4;strokeColor=#82b366;" parent="1" vertex="1">
          <mxGeometry x="370" y="300" width="100" height="70" as="geometry" />
        </mxCell>
        <mxCell id="axAE53MjwZ55xwB7vDH6-35" value="mo:MusicArtist" style="ellipse;whiteSpace=wrap;html=1;fillColor=#d5e8d4;strokeColor=#82b366;" parent="1" vertex="1">
          <mxGeometry y="300" width="100" height="70" as="geometry" />
        </mxCell>
        <mxCell id="axAE53MjwZ55xwB7vDH6-36" value="" style="endArrow=classic;html=1;rounded=0;entryX=0.5;entryY=0;entryDx=0;entryDy=0;" parent="1" source="axAE53MjwZ55xwB7vDH6-5" target="axAE53MjwZ55xwB7vDH6-35" edge="1">
          <mxGeometry width="50" height="50" relative="1" as="geometry">
            <mxPoint x="400" y="470" as="sourcePoint" />
            <mxPoint x="450" y="420" as="targetPoint" />
          </mxGeometry>
        </mxCell>
        <mxCell id="axAE53MjwZ55xwB7vDH6-37" value="&lt;font style=&quot;font-size: 14px;&quot;&gt;@type&lt;/font&gt;" style="edgeLabel;html=1;align=center;verticalAlign=middle;resizable=0;points=[];" parent="axAE53MjwZ55xwB7vDH6-36" vertex="1" connectable="0">
          <mxGeometry x="-0.15" y="3" relative="1" as="geometry">
            <mxPoint as="offset" />
          </mxGeometry>
        </mxCell>
        <mxCell id="axAE53MjwZ55xwB7vDH6-39" value="Name of the Artist" style="ellipse;whiteSpace=wrap;html=1;fillColor=#d5e8d4;strokeColor=#82b366;" parent="1" vertex="1">
          <mxGeometry x="130" y="300" width="100" height="70" as="geometry" />
        </mxCell>
        <mxCell id="axAE53MjwZ55xwB7vDH6-40" value="Release Date Value" style="ellipse;whiteSpace=wrap;html=1;fillColor=#d5e8d4;strokeColor=#82b366;" parent="1" vertex="1">
          <mxGeometry x="490" y="300" width="100" height="70" as="geometry" />
        </mxCell>
        <mxCell id="axAE53MjwZ55xwB7vDH6-41" value="" style="endArrow=classic;html=1;rounded=0;exitX=0;exitY=1;exitDx=0;exitDy=0;entryX=0.5;entryY=0;entryDx=0;entryDy=0;" parent="1" source="axAE53MjwZ55xwB7vDH6-5" target="axAE53MjwZ55xwB7vDH6-39" edge="1">
          <mxGeometry width="50" height="50" relative="1" as="geometry">
            <mxPoint x="400" y="470" as="sourcePoint" />
            <mxPoint x="450" y="420" as="targetPoint" />
          </mxGeometry>
        </mxCell>
        <mxCell id="axAE53MjwZ55xwB7vDH6-43" value="&lt;font style=&quot;font-size: 14px;&quot;&gt;foaf:name&lt;/font&gt;" style="edgeLabel;html=1;align=center;verticalAlign=middle;resizable=0;points=[];" parent="axAE53MjwZ55xwB7vDH6-41" vertex="1" connectable="0">
          <mxGeometry x="-0.336" y="-2" relative="1" as="geometry">
            <mxPoint y="1" as="offset" />
          </mxGeometry>
        </mxCell>
        <mxCell id="axAE53MjwZ55xwB7vDH6-42" value="@value" style="endArrow=classic;html=1;rounded=0;exitX=0.82;exitY=0.957;exitDx=0;exitDy=0;entryX=0.5;entryY=0;entryDx=0;entryDy=0;exitPerimeter=0;fontSize=13;" parent="1" source="axAE53MjwZ55xwB7vDH6-6" target="axAE53MjwZ55xwB7vDH6-40" edge="1">
          <mxGeometry width="50" height="50" relative="1" as="geometry">
            <mxPoint x="400" y="470" as="sourcePoint" />
            <mxPoint x="450" y="420" as="targetPoint" />
          </mxGeometry>
        </mxCell>
        <mxCell id="wnxAi-8sEkIAlbouLqCz-1" value="" style="endArrow=classic;html=1;rounded=0;exitX=0.79;exitY=0.886;exitDx=0;exitDy=0;exitPerimeter=0;entryX=0.5;entryY=0;entryDx=0;entryDy=0;" edge="1" parent="1" source="axAE53MjwZ55xwB7vDH6-24" target="wnxAi-8sEkIAlbouLqCz-3">
          <mxGeometry width="50" height="50" relative="1" as="geometry">
            <mxPoint x="560" y="600" as="sourcePoint" />
            <mxPoint x="610" y="550" as="targetPoint" />
          </mxGeometry>
        </mxCell>
        <mxCell id="wnxAi-8sEkIAlbouLqCz-6" value="@id" style="edgeLabel;html=1;align=center;verticalAlign=middle;resizable=0;points=[];fontSize=13;" vertex="1" connectable="0" parent="wnxAi-8sEkIAlbouLqCz-1">
          <mxGeometry x="0.0459" y="-1" relative="1" as="geometry">
            <mxPoint x="1" as="offset" />
          </mxGeometry>
        </mxCell>
        <mxCell id="wnxAi-8sEkIAlbouLqCz-2" value="Text of Genre" style="ellipse;whiteSpace=wrap;html=1;fillColor=#d5e8d4;strokeColor=#82b366;" vertex="1" parent="1">
          <mxGeometry x="620" y="300" width="100" height="70" as="geometry" />
        </mxCell>
        <mxCell id="wnxAi-8sEkIAlbouLqCz-3" value="URL of Genre" style="ellipse;whiteSpace=wrap;html=1;fillColor=#d5e8d4;strokeColor=#82b366;" vertex="1" parent="1">
          <mxGeometry x="840" y="300" width="100" height="70" as="geometry" />
        </mxCell>
        <mxCell id="wnxAi-8sEkIAlbouLqCz-4" value="" style="endArrow=classic;html=1;rounded=0;exitX=0;exitY=1;exitDx=0;exitDy=0;entryX=0.6;entryY=0;entryDx=0;entryDy=0;entryPerimeter=0;" edge="1" parent="1" source="axAE53MjwZ55xwB7vDH6-24" target="wnxAi-8sEkIAlbouLqCz-2">
          <mxGeometry width="50" height="50" relative="1" as="geometry">
            <mxPoint x="560" y="600" as="sourcePoint" />
            <mxPoint x="610" y="550" as="targetPoint" />
          </mxGeometry>
        </mxCell>
        <mxCell id="wnxAi-8sEkIAlbouLqCz-5" value="&lt;font style=&quot;font-size: 13px;&quot;&gt;rdfs:label&lt;/font&gt;" style="edgeLabel;html=1;align=center;verticalAlign=middle;resizable=0;points=[];" vertex="1" connectable="0" parent="wnxAi-8sEkIAlbouLqCz-4">
          <mxGeometry x="-0.1074" y="2" relative="1" as="geometry">
            <mxPoint as="offset" />
          </mxGeometry>
        </mxCell>
        <mxCell id="wnxAi-8sEkIAlbouLqCz-8" value="URL of Artist" style="ellipse;whiteSpace=wrap;html=1;fillColor=#d5e8d4;strokeColor=#82b366;" vertex="1" parent="1">
          <mxGeometry x="250" y="300" width="100" height="70" as="geometry" />
        </mxCell>
        <mxCell id="wnxAi-8sEkIAlbouLqCz-9" value="" style="endArrow=classic;html=1;rounded=0;exitX=0.5;exitY=1;exitDx=0;exitDy=0;entryX=0.5;entryY=0;entryDx=0;entryDy=0;" edge="1" parent="1" source="axAE53MjwZ55xwB7vDH6-5" target="wnxAi-8sEkIAlbouLqCz-8">
          <mxGeometry width="50" height="50" relative="1" as="geometry">
            <mxPoint x="560" y="600" as="sourcePoint" />
            <mxPoint x="610" y="550" as="targetPoint" />
          </mxGeometry>
        </mxCell>
        <mxCell id="wnxAi-8sEkIAlbouLqCz-10" value="@id" style="edgeLabel;html=1;align=center;verticalAlign=middle;resizable=0;points=[];fontSize=13;" vertex="1" connectable="0" parent="wnxAi-8sEkIAlbouLqCz-9">
          <mxGeometry x="-0.2412" y="1" relative="1" as="geometry">
            <mxPoint x="1" as="offset" />
          </mxGeometry>
        </mxCell>
      </root>
    </mxGraphModel>
  </diagram>
</mxfile>
